<?xml version="1.0" encoding="UTF-8" standalone="no"?>
<!DOCTYPE svg PUBLIC "-//W3C//DTD SVG 1.1//EN"
 "http://www.w3.org/Graphics/SVG/1.1/DTD/svg11.dtd">
<!-- Generated by graphviz version 2.46.0 (20210119.1425)
 -->
<!-- Title: dependencies Pages: 1 -->
<svg width="504pt" height="211pt"
 viewBox="0.00 0.00 504.00 211.00" xmlns="http://www.w3.org/2000/svg" xmlns:xlink="http://www.w3.org/1999/xlink">
<g id="graph0" class="graph" transform="scale(1 1) rotate(0) translate(4 207)">
<title>dependencies</title>
<polygon fill="white" stroke="transparent" points="-4,4 -4,-207 500,-207 500,4 -4,4"/>
<text text-anchor="start" x="227.01" y="-42.4" font-family="sans-serif" font-weight="bold" font-size="14.00">Legend</text>
<polygon fill="#ffffb3" stroke="transparent" points="14,-10 14,-30 34,-30 34,-10 14,-10"/>
<text text-anchor="start" x="37.63" y="-15.4" font-family="sans-serif" font-size="14.00"> &#160;Declarations</text>
<polygon fill="#8dd3c7" stroke="transparent" points="127,-10 127,-30 147,-30 147,-10 127,-10"/>
<text text-anchor="start" x="150.73" y="-15.4" font-family="sans-serif" font-size="14.00"> &#160;Module</text>
<polygon fill="#80b1d3" stroke="transparent" points="213,-10 213,-30 233,-30 233,-10 213,-10"/>
<text text-anchor="start" x="236.78" y="-15.4" font-family="sans-serif" font-size="14.00"> &#160;Bootstrap</text>
<polygon fill="#fdb462" stroke="transparent" points="310,-10 310,-30 330,-30 330,-10 310,-10"/>
<text text-anchor="start" x="333.67" y="-15.4" font-family="sans-serif" font-size="14.00"> &#160;Providers</text>
<polygon fill="#fb8072" stroke="transparent" points="406,-10 406,-30 426,-30 426,-10 406,-10"/>
<text text-anchor="start" x="429.73" y="-15.4" font-family="sans-serif" font-size="14.00"> &#160;Exports</text>
<g id="clust1" class="cluster">
<title>cluster_SidebarModule</title>
<polygon fill="none" stroke="black" stroke-dasharray="1,5" points="84,-70 84,-195 412,-195 412,-70 84,-70"/>
</g>
<g id="clust4" class="cluster">
<title>cluster_SidebarModule_imports</title>
<polygon fill="none" stroke="black" points="240,-78 240,-130 404,-130 404,-78 240,-78"/>
</g>
<g id="clust2" class="cluster">
<title>cluster_SidebarModule_declarations</title>
<polygon fill="none" stroke="black" points="92,-78 92,-130 232,-130 232,-78 92,-78"/>
</g>
<!-- SidebarComponent -->
<g id="node1" class="node">
<title>SidebarComponent</title>
<polygon fill="#ffffb3" stroke="black" points="224.1,-122 99.9,-122 99.9,-86 224.1,-86 224.1,-122"/>
<text text-anchor="middle" x="162" y="-99.8" font-family="Times,serif" font-size="14.00">SidebarComponent</text>
</g>
<!-- SidebarModule -->
<g id="node2" class="node">
<title>SidebarModule</title>
<polygon fill="#8dd3c7" stroke="black" points="293.31,-187 290.31,-191 269.31,-191 266.31,-187 190.69,-187 190.69,-151 293.31,-151 293.31,-187"/>
<text text-anchor="middle" x="242" y="-164.8" font-family="Times,serif" font-size="14.00">SidebarModule</text>
</g>
<!-- SidebarComponent&#45;&gt;SidebarModule -->
<g id="edge1" class="edge">
<title>SidebarComponent&#45;&gt;SidebarModule</title>
<path fill="none" stroke="black" d="M207.45,-122.11C207.45,-122.11 207.45,-140.99 207.45,-140.99"/>
<polygon fill="black" stroke="black" points="203.95,-140.99 207.45,-150.99 210.95,-140.99 203.95,-140.99"/>
</g>
<!-- SidebarRoutingModule -->
<g id="node3" class="node">
<title>SidebarRoutingModule</title>
<polygon fill="#8dd3c7" stroke="black" points="395.93,-122 392.93,-126 371.93,-126 368.93,-122 248.07,-122 248.07,-86 395.93,-86 395.93,-122"/>
<text text-anchor="middle" x="322" y="-99.8" font-family="Times,serif" font-size="14.00">SidebarRoutingModule</text>
</g>
<!-- SidebarRoutingModule&#45;&gt;SidebarModule -->
<g id="edge2" class="edge">
<title>SidebarRoutingModule&#45;&gt;SidebarModule</title>
<path fill="none" stroke="black" d="M270.72,-122.11C270.72,-122.11 270.72,-140.99 270.72,-140.99"/>
<polygon fill="black" stroke="black" points="267.22,-140.99 270.72,-150.99 274.22,-140.99 267.22,-140.99"/>
</g>
</g>
</svg>
