<?xml version="1.0" encoding="UTF-8" standalone="no"?>
<!DOCTYPE svg PUBLIC "-//W3C//DTD SVG 1.1//EN"
 "http://www.w3.org/Graphics/SVG/1.1/DTD/svg11.dtd">
<!-- Generated by graphviz version 2.46.0 (20210119.1425)
 -->
<!-- Title: dependencies Pages: 1 -->
<svg width="654pt" height="211pt"
 viewBox="0.00 0.00 654.00 211.00" xmlns="http://www.w3.org/2000/svg" xmlns:xlink="http://www.w3.org/1999/xlink">
<g id="graph0" class="graph" transform="scale(1 1) rotate(0) translate(4 207)">
<title>dependencies</title>
<polygon fill="white" stroke="transparent" points="-4,4 -4,-207 650,-207 650,4 -4,4"/>
<text text-anchor="start" x="302.01" y="-42.4" font-family="sans-serif" font-weight="bold" font-size="14.00">Legend</text>
<polygon fill="#ffffb3" stroke="transparent" points="89,-10 89,-30 109,-30 109,-10 89,-10"/>
<text text-anchor="start" x="112.63" y="-15.4" font-family="sans-serif" font-size="14.00"> &#160;Declarations</text>
<polygon fill="#8dd3c7" stroke="transparent" points="202,-10 202,-30 222,-30 222,-10 202,-10"/>
<text text-anchor="start" x="225.73" y="-15.4" font-family="sans-serif" font-size="14.00"> &#160;Module</text>
<polygon fill="#80b1d3" stroke="transparent" points="288,-10 288,-30 308,-30 308,-10 288,-10"/>
<text text-anchor="start" x="311.78" y="-15.4" font-family="sans-serif" font-size="14.00"> &#160;Bootstrap</text>
<polygon fill="#fdb462" stroke="transparent" points="385,-10 385,-30 405,-30 405,-10 385,-10"/>
<text text-anchor="start" x="408.67" y="-15.4" font-family="sans-serif" font-size="14.00"> &#160;Providers</text>
<polygon fill="#fb8072" stroke="transparent" points="481,-10 481,-30 501,-30 501,-10 481,-10"/>
<text text-anchor="start" x="504.73" y="-15.4" font-family="sans-serif" font-size="14.00"> &#160;Exports</text>
<g id="clust1" class="cluster">
<title>cluster_ComicsModule</title>
<polygon fill="none" stroke="black" stroke-dasharray="1,5" points="8,-70 8,-195 638,-195 638,-70 8,-70"/>
</g>
<g id="clust4" class="cluster">
<title>cluster_ComicsModule_imports</title>
<polygon fill="none" stroke="black" points="164,-78 164,-130 630,-130 630,-78 164,-78"/>
</g>
<g id="clust2" class="cluster">
<title>cluster_ComicsModule_declarations</title>
<polygon fill="none" stroke="black" points="16,-78 16,-130 156,-130 156,-78 16,-78"/>
</g>
<!-- ComicsComponent -->
<g id="node1" class="node">
<title>ComicsComponent</title>
<polygon fill="#ffffb3" stroke="black" points="148.11,-122 23.89,-122 23.89,-86 148.11,-86 148.11,-122"/>
<text text-anchor="middle" x="86" y="-99.8" font-family="Times,serif" font-size="14.00">ComicsComponent</text>
</g>
<!-- ComicsModule -->
<g id="node2" class="node">
<title>ComicsModule</title>
<polygon fill="#8dd3c7" stroke="black" points="364.33,-187 361.33,-191 340.33,-191 337.33,-187 261.67,-187 261.67,-151 364.33,-151 364.33,-187"/>
<text text-anchor="middle" x="313" y="-164.8" font-family="Times,serif" font-size="14.00">ComicsModule</text>
</g>
<!-- ComicsComponent&#45;&gt;ComicsModule -->
<g id="edge1" class="edge">
<title>ComicsComponent&#45;&gt;ComicsModule</title>
<path fill="none" stroke="black" d="M86,-122.11C86,-141.34 86,-169 86,-169 86,-169 251.77,-169 251.77,-169"/>
<polygon fill="black" stroke="black" points="251.77,-172.5 261.77,-169 251.77,-165.5 251.77,-172.5"/>
</g>
<!-- ComicsRoutingModule -->
<g id="node3" class="node">
<title>ComicsRoutingModule</title>
<polygon fill="#8dd3c7" stroke="black" points="621.95,-122 618.95,-126 597.95,-126 594.95,-122 474.05,-122 474.05,-86 621.95,-86 621.95,-122"/>
<text text-anchor="middle" x="548" y="-99.8" font-family="Times,serif" font-size="14.00">ComicsRoutingModule</text>
</g>
<!-- ComicsRoutingModule&#45;&gt;ComicsModule -->
<g id="edge2" class="edge">
<title>ComicsRoutingModule&#45;&gt;ComicsModule</title>
<path fill="none" stroke="black" d="M548,-122.11C548,-141.34 548,-169 548,-169 548,-169 374.28,-169 374.28,-169"/>
<polygon fill="black" stroke="black" points="374.28,-165.5 364.28,-169 374.28,-172.5 374.28,-165.5"/>
</g>
<!-- DetailRecordModule -->
<g id="node4" class="node">
<title>DetailRecordModule</title>
<polygon fill="#8dd3c7" stroke="black" points="456.18,-122 453.18,-126 432.18,-126 429.18,-122 321.82,-122 321.82,-86 456.18,-86 456.18,-122"/>
<text text-anchor="middle" x="389" y="-99.8" font-family="Times,serif" font-size="14.00">DetailRecordModule</text>
</g>
<!-- DetailRecordModule&#45;&gt;ComicsModule -->
<g id="edge3" class="edge">
<title>DetailRecordModule&#45;&gt;ComicsModule</title>
<path fill="none" stroke="black" d="M343.04,-122.11C343.04,-122.11 343.04,-140.99 343.04,-140.99"/>
<polygon fill="black" stroke="black" points="339.54,-140.99 343.04,-150.99 346.54,-140.99 339.54,-140.99"/>
</g>
<!-- GridRecordsModule -->
<g id="node5" class="node">
<title>GridRecordsModule</title>
<polygon fill="#8dd3c7" stroke="black" points="303.58,-122 300.58,-126 279.58,-126 276.58,-122 172.42,-122 172.42,-86 303.58,-86 303.58,-122"/>
<text text-anchor="middle" x="238" y="-99.8" font-family="Times,serif" font-size="14.00">GridRecordsModule</text>
</g>
<!-- GridRecordsModule&#45;&gt;ComicsModule -->
<g id="edge4" class="edge">
<title>GridRecordsModule&#45;&gt;ComicsModule</title>
<path fill="none" stroke="black" d="M282.69,-122.11C282.69,-122.11 282.69,-140.99 282.69,-140.99"/>
<polygon fill="black" stroke="black" points="279.19,-140.99 282.69,-150.99 286.19,-140.99 279.19,-140.99"/>
</g>
</g>
</svg>
