<?xml version="1.0" encoding="UTF-8" standalone="no"?>
<!DOCTYPE svg PUBLIC "-//W3C//DTD SVG 1.1//EN"
 "http://www.w3.org/Graphics/SVG/1.1/DTD/svg11.dtd">
<!-- Generated by graphviz version 2.46.0 (20210119.1425)
 -->
<!-- Title: dependencies Pages: 1 -->
<svg width="654pt" height="211pt"
 viewBox="0.00 0.00 654.00 211.00" xmlns="http://www.w3.org/2000/svg" xmlns:xlink="http://www.w3.org/1999/xlink">
<g id="graph0" class="graph" transform="scale(1 1) rotate(0) translate(4 207)">
<title>dependencies</title>
<polygon fill="white" stroke="transparent" points="-4,4 -4,-207 650,-207 650,4 -4,4"/>
<text text-anchor="start" x="302.01" y="-42.4" font-family="sans-serif" font-weight="bold" font-size="14.00">Legend</text>
<polygon fill="#ffffb3" stroke="transparent" points="89,-10 89,-30 109,-30 109,-10 89,-10"/>
<text text-anchor="start" x="112.63" y="-15.4" font-family="sans-serif" font-size="14.00"> &#160;Declarations</text>
<polygon fill="#8dd3c7" stroke="transparent" points="202,-10 202,-30 222,-30 222,-10 202,-10"/>
<text text-anchor="start" x="225.73" y="-15.4" font-family="sans-serif" font-size="14.00"> &#160;Module</text>
<polygon fill="#80b1d3" stroke="transparent" points="288,-10 288,-30 308,-30 308,-10 288,-10"/>
<text text-anchor="start" x="311.78" y="-15.4" font-family="sans-serif" font-size="14.00"> &#160;Bootstrap</text>
<polygon fill="#fdb462" stroke="transparent" points="385,-10 385,-30 405,-30 405,-10 385,-10"/>
<text text-anchor="start" x="408.67" y="-15.4" font-family="sans-serif" font-size="14.00"> &#160;Providers</text>
<polygon fill="#fb8072" stroke="transparent" points="481,-10 481,-30 501,-30 501,-10 481,-10"/>
<text text-anchor="start" x="504.73" y="-15.4" font-family="sans-serif" font-size="14.00"> &#160;Exports</text>
<g id="clust1" class="cluster">
<title>cluster_ComicsModule</title>
<polygon fill="none" stroke="black" stroke-dasharray="1,5" points="8,-70 8,-195 638,-195 638,-70 8,-70"/>
</g>
<g id="clust2" class="cluster">
<title>cluster_ComicsModule_declarations</title>
<polygon fill="none" stroke="black" points="490,-78 490,-130 630,-130 630,-78 490,-78"/>
</g>
<g id="clust4" class="cluster">
<title>cluster_ComicsModule_imports</title>
<polygon fill="none" stroke="black" points="16,-78 16,-130 482,-130 482,-78 16,-78"/>
</g>
<!-- ComicsComponent -->
<g id="node1" class="node">
<title>ComicsComponent</title>
<polygon fill="#ffffb3" stroke="black" points="622.11,-122 497.89,-122 497.89,-86 622.11,-86 622.11,-122"/>
<text text-anchor="middle" x="560" y="-99.8" font-family="Times,serif" font-size="14.00">ComicsComponent</text>
</g>
<!-- ComicsModule -->
<g id="node2" class="node">
<title>ComicsModule</title>
<polygon fill="#8dd3c7" stroke="black" points="371.33,-187 368.33,-191 347.33,-191 344.33,-187 268.67,-187 268.67,-151 371.33,-151 371.33,-187"/>
<text text-anchor="middle" x="320" y="-164.8" font-family="Times,serif" font-size="14.00">ComicsModule</text>
</g>
<!-- ComicsComponent&#45;&gt;ComicsModule -->
<g id="edge1" class="edge">
<title>ComicsComponent&#45;&gt;ComicsModule</title>
<path fill="none" stroke="black" d="M560,-122.11C560,-141.34 560,-169 560,-169 560,-169 381.19,-169 381.19,-169"/>
<polygon fill="black" stroke="black" points="381.19,-165.5 371.19,-169 381.19,-172.5 381.19,-165.5"/>
</g>
<!-- ComicsRoutingModule -->
<g id="node3" class="node">
<title>ComicsRoutingModule</title>
<polygon fill="#8dd3c7" stroke="black" points="473.95,-122 470.95,-126 449.95,-126 446.95,-122 326.05,-122 326.05,-86 473.95,-86 473.95,-122"/>
<text text-anchor="middle" x="400" y="-99.8" font-family="Times,serif" font-size="14.00">ComicsRoutingModule</text>
</g>
<!-- ComicsRoutingModule&#45;&gt;ComicsModule -->
<g id="edge2" class="edge">
<title>ComicsRoutingModule&#45;&gt;ComicsModule</title>
<path fill="none" stroke="black" d="M348.72,-122.11C348.72,-122.11 348.72,-140.99 348.72,-140.99"/>
<polygon fill="black" stroke="black" points="345.22,-140.99 348.72,-150.99 352.22,-140.99 345.22,-140.99"/>
</g>
<!-- DetailRecordModule -->
<g id="node4" class="node">
<title>DetailRecordModule</title>
<polygon fill="#8dd3c7" stroke="black" points="308.18,-122 305.18,-126 284.18,-126 281.18,-122 173.82,-122 173.82,-86 308.18,-86 308.18,-122"/>
<text text-anchor="middle" x="241" y="-99.8" font-family="Times,serif" font-size="14.00">DetailRecordModule</text>
</g>
<!-- DetailRecordModule&#45;&gt;ComicsModule -->
<g id="edge3" class="edge">
<title>DetailRecordModule&#45;&gt;ComicsModule</title>
<path fill="none" stroke="black" d="M288.46,-122.11C288.46,-122.11 288.46,-140.99 288.46,-140.99"/>
<polygon fill="black" stroke="black" points="284.96,-140.99 288.46,-150.99 291.96,-140.99 284.96,-140.99"/>
</g>
<!-- GridRecordsModule -->
<g id="node5" class="node">
<title>GridRecordsModule</title>
<polygon fill="#8dd3c7" stroke="black" points="155.58,-122 152.58,-126 131.58,-126 128.58,-122 24.42,-122 24.42,-86 155.58,-86 155.58,-122"/>
<text text-anchor="middle" x="90" y="-99.8" font-family="Times,serif" font-size="14.00">GridRecordsModule</text>
</g>
<!-- GridRecordsModule&#45;&gt;ComicsModule -->
<g id="edge4" class="edge">
<title>GridRecordsModule&#45;&gt;ComicsModule</title>
<path fill="none" stroke="black" d="M90,-122.11C90,-141.34 90,-169 90,-169 90,-169 258.67,-169 258.67,-169"/>
<polygon fill="black" stroke="black" points="258.67,-172.5 268.67,-169 258.67,-165.5 258.67,-172.5"/>
</g>
</g>
</svg>
