<?xml version="1.0" encoding="UTF-8" standalone="no"?>
<!DOCTYPE svg PUBLIC "-//W3C//DTD SVG 1.1//EN"
 "http://www.w3.org/Graphics/SVG/1.1/DTD/svg11.dtd">
<!-- Generated by graphviz version 2.46.0 (20210119.1425)
 -->
<!-- Title: dependencies Pages: 1 -->
<svg width="504pt" height="211pt"
 viewBox="0.00 0.00 504.00 211.00" xmlns="http://www.w3.org/2000/svg" xmlns:xlink="http://www.w3.org/1999/xlink">
<g id="graph0" class="graph" transform="scale(1 1) rotate(0) translate(4 207)">
<title>dependencies</title>
<polygon fill="white" stroke="transparent" points="-4,4 -4,-207 500,-207 500,4 -4,4"/>
<text text-anchor="start" x="227.01" y="-42.4" font-family="sans-serif" font-weight="bold" font-size="14.00">Legend</text>
<polygon fill="#ffffb3" stroke="transparent" points="14,-10 14,-30 34,-30 34,-10 14,-10"/>
<text text-anchor="start" x="37.63" y="-15.4" font-family="sans-serif" font-size="14.00"> &#160;Declarations</text>
<polygon fill="#8dd3c7" stroke="transparent" points="127,-10 127,-30 147,-30 147,-10 127,-10"/>
<text text-anchor="start" x="150.73" y="-15.4" font-family="sans-serif" font-size="14.00"> &#160;Module</text>
<polygon fill="#80b1d3" stroke="transparent" points="213,-10 213,-30 233,-30 233,-10 213,-10"/>
<text text-anchor="start" x="236.78" y="-15.4" font-family="sans-serif" font-size="14.00"> &#160;Bootstrap</text>
<polygon fill="#fdb462" stroke="transparent" points="310,-10 310,-30 330,-30 330,-10 310,-10"/>
<text text-anchor="start" x="333.67" y="-15.4" font-family="sans-serif" font-size="14.00"> &#160;Providers</text>
<polygon fill="#fb8072" stroke="transparent" points="406,-10 406,-30 426,-30 426,-10 406,-10"/>
<text text-anchor="start" x="429.73" y="-15.4" font-family="sans-serif" font-size="14.00"> &#160;Exports</text>
<g id="clust1" class="cluster">
<title>cluster_SeriesModule</title>
<polygon fill="none" stroke="black" stroke-dasharray="1,5" points="18,-70 18,-195 478,-195 478,-70 18,-70"/>
</g>
<g id="clust2" class="cluster">
<title>cluster_SeriesModule_declarations</title>
<polygon fill="none" stroke="black" points="338,-78 338,-130 470,-130 470,-78 338,-78"/>
</g>
<g id="clust4" class="cluster">
<title>cluster_SeriesModule_imports</title>
<polygon fill="none" stroke="black" points="26,-78 26,-130 330,-130 330,-78 26,-78"/>
</g>
<!-- SeriesComponent -->
<g id="node1" class="node">
<title>SeriesComponent</title>
<polygon fill="#ffffb3" stroke="black" points="461.54,-122 346.46,-122 346.46,-86 461.54,-86 461.54,-122"/>
<text text-anchor="middle" x="404" y="-99.8" font-family="Times,serif" font-size="14.00">SeriesComponent</text>
</g>
<!-- SeriesModule -->
<g id="node2" class="node">
<title>SeriesModule</title>
<polygon fill="#8dd3c7" stroke="black" points="302.76,-187 299.76,-191 278.76,-191 275.76,-187 209.24,-187 209.24,-151 302.76,-151 302.76,-187"/>
<text text-anchor="middle" x="256" y="-164.8" font-family="Times,serif" font-size="14.00">SeriesModule</text>
</g>
<!-- SeriesComponent&#45;&gt;SeriesModule -->
<g id="edge1" class="edge">
<title>SeriesComponent&#45;&gt;SeriesModule</title>
<path fill="none" stroke="black" d="M404,-122.11C404,-141.34 404,-169 404,-169 404,-169 312.83,-169 312.83,-169"/>
<polygon fill="black" stroke="black" points="312.83,-165.5 302.83,-169 312.83,-172.5 312.83,-165.5"/>
</g>
<!-- GridRecordsModule -->
<g id="node3" class="node">
<title>GridRecordsModule</title>
<polygon fill="#8dd3c7" stroke="black" points="321.58,-122 318.58,-126 297.58,-126 294.58,-122 190.42,-122 190.42,-86 321.58,-86 321.58,-122"/>
<text text-anchor="middle" x="256" y="-99.8" font-family="Times,serif" font-size="14.00">GridRecordsModule</text>
</g>
<!-- GridRecordsModule&#45;&gt;SeriesModule -->
<g id="edge2" class="edge">
<title>GridRecordsModule&#45;&gt;SeriesModule</title>
<path fill="none" stroke="black" d="M256,-122.11C256,-122.11 256,-140.99 256,-140.99"/>
<polygon fill="black" stroke="black" points="252.5,-140.99 256,-150.99 259.5,-140.99 252.5,-140.99"/>
</g>
<!-- SeriesRoutingModule -->
<g id="node4" class="node">
<title>SeriesRoutingModule</title>
<polygon fill="#8dd3c7" stroke="black" points="172.38,-122 169.38,-126 148.38,-126 145.38,-122 33.62,-122 33.62,-86 172.38,-86 172.38,-122"/>
<text text-anchor="middle" x="103" y="-99.8" font-family="Times,serif" font-size="14.00">SeriesRoutingModule</text>
</g>
<!-- SeriesRoutingModule&#45;&gt;SeriesModule -->
<g id="edge3" class="edge">
<title>SeriesRoutingModule&#45;&gt;SeriesModule</title>
<path fill="none" stroke="black" d="M103,-122.11C103,-141.34 103,-169 103,-169 103,-169 198.85,-169 198.85,-169"/>
<polygon fill="black" stroke="black" points="198.85,-172.5 208.85,-169 198.85,-165.5 198.85,-172.5"/>
</g>
</g>
</svg>
