<?xml version="1.0" encoding="UTF-8" standalone="no"?>
<!DOCTYPE svg PUBLIC "-//W3C//DTD SVG 1.1//EN"
 "http://www.w3.org/Graphics/SVG/1.1/DTD/svg11.dtd">
<!-- Generated by graphviz version 2.46.0 (20210119.1425)
 -->
<!-- Title: dependencies Pages: 1 -->
<svg width="662pt" height="211pt"
 viewBox="0.00 0.00 662.00 211.00" xmlns="http://www.w3.org/2000/svg" xmlns:xlink="http://www.w3.org/1999/xlink">
<g id="graph0" class="graph" transform="scale(1 1) rotate(0) translate(4 207)">
<title>dependencies</title>
<polygon fill="white" stroke="transparent" points="-4,4 -4,-207 658,-207 658,4 -4,4"/>
<text text-anchor="start" x="306.01" y="-42.4" font-family="sans-serif" font-weight="bold" font-size="14.00">Legend</text>
<polygon fill="#ffffb3" stroke="transparent" points="93,-10 93,-30 113,-30 113,-10 93,-10"/>
<text text-anchor="start" x="116.63" y="-15.4" font-family="sans-serif" font-size="14.00"> &#160;Declarations</text>
<polygon fill="#8dd3c7" stroke="transparent" points="206,-10 206,-30 226,-30 226,-10 206,-10"/>
<text text-anchor="start" x="229.73" y="-15.4" font-family="sans-serif" font-size="14.00"> &#160;Module</text>
<polygon fill="#80b1d3" stroke="transparent" points="292,-10 292,-30 312,-30 312,-10 292,-10"/>
<text text-anchor="start" x="315.78" y="-15.4" font-family="sans-serif" font-size="14.00"> &#160;Bootstrap</text>
<polygon fill="#fdb462" stroke="transparent" points="389,-10 389,-30 409,-30 409,-10 389,-10"/>
<text text-anchor="start" x="412.67" y="-15.4" font-family="sans-serif" font-size="14.00"> &#160;Providers</text>
<polygon fill="#fb8072" stroke="transparent" points="485,-10 485,-30 505,-30 505,-10 485,-10"/>
<text text-anchor="start" x="508.73" y="-15.4" font-family="sans-serif" font-size="14.00"> &#160;Exports</text>
<g id="clust1" class="cluster">
<title>cluster_CreatorsModule</title>
<polygon fill="none" stroke="black" stroke-dasharray="1,5" points="8,-70 8,-195 646,-195 646,-70 8,-70"/>
</g>
<g id="clust2" class="cluster">
<title>cluster_CreatorsModule_declarations</title>
<polygon fill="none" stroke="black" points="494,-78 494,-130 638,-130 638,-78 494,-78"/>
</g>
<g id="clust4" class="cluster">
<title>cluster_CreatorsModule_imports</title>
<polygon fill="none" stroke="black" points="16,-78 16,-130 486,-130 486,-78 16,-78"/>
</g>
<!-- CreatorsComponent -->
<g id="node1" class="node">
<title>CreatorsComponent</title>
<polygon fill="#ffffb3" stroke="black" points="630.25,-122 501.75,-122 501.75,-86 630.25,-86 630.25,-122"/>
<text text-anchor="middle" x="566" y="-99.8" font-family="Times,serif" font-size="14.00">CreatorsComponent</text>
</g>
<!-- CreatorsModule -->
<g id="node2" class="node">
<title>CreatorsModule</title>
<polygon fill="#8dd3c7" stroke="black" points="374.47,-187 371.47,-191 350.47,-191 347.47,-187 267.53,-187 267.53,-151 374.47,-151 374.47,-187"/>
<text text-anchor="middle" x="321" y="-164.8" font-family="Times,serif" font-size="14.00">CreatorsModule</text>
</g>
<!-- CreatorsComponent&#45;&gt;CreatorsModule -->
<g id="edge1" class="edge">
<title>CreatorsComponent&#45;&gt;CreatorsModule</title>
<path fill="none" stroke="black" d="M566,-122.11C566,-141.34 566,-169 566,-169 566,-169 384.77,-169 384.77,-169"/>
<polygon fill="black" stroke="black" points="384.77,-165.5 374.77,-169 384.77,-172.5 384.77,-165.5"/>
</g>
<!-- CreatorsRoutingModule -->
<g id="node3" class="node">
<title>CreatorsRoutingModule</title>
<polygon fill="#8dd3c7" stroke="black" points="478.09,-122 475.09,-126 454.09,-126 451.09,-122 325.91,-122 325.91,-86 478.09,-86 478.09,-122"/>
<text text-anchor="middle" x="402" y="-99.8" font-family="Times,serif" font-size="14.00">CreatorsRoutingModule</text>
</g>
<!-- CreatorsRoutingModule&#45;&gt;CreatorsModule -->
<g id="edge2" class="edge">
<title>CreatorsRoutingModule&#45;&gt;CreatorsModule</title>
<path fill="none" stroke="black" d="M350.22,-122.11C350.22,-122.11 350.22,-140.99 350.22,-140.99"/>
<polygon fill="black" stroke="black" points="346.72,-140.99 350.22,-150.99 353.72,-140.99 346.72,-140.99"/>
</g>
<!-- DetailRecordModule -->
<g id="node4" class="node">
<title>DetailRecordModule</title>
<polygon fill="#8dd3c7" stroke="black" points="308.18,-122 305.18,-126 284.18,-126 281.18,-122 173.82,-122 173.82,-86 308.18,-86 308.18,-122"/>
<text text-anchor="middle" x="241" y="-99.8" font-family="Times,serif" font-size="14.00">DetailRecordModule</text>
</g>
<!-- DetailRecordModule&#45;&gt;CreatorsModule -->
<g id="edge3" class="edge">
<title>DetailRecordModule&#45;&gt;CreatorsModule</title>
<path fill="none" stroke="black" d="M287.8,-122.11C287.8,-122.11 287.8,-140.99 287.8,-140.99"/>
<polygon fill="black" stroke="black" points="284.3,-140.99 287.8,-150.99 291.3,-140.99 284.3,-140.99"/>
</g>
<!-- GridRecordsModule -->
<g id="node5" class="node">
<title>GridRecordsModule</title>
<polygon fill="#8dd3c7" stroke="black" points="155.58,-122 152.58,-126 131.58,-126 128.58,-122 24.42,-122 24.42,-86 155.58,-86 155.58,-122"/>
<text text-anchor="middle" x="90" y="-99.8" font-family="Times,serif" font-size="14.00">GridRecordsModule</text>
</g>
<!-- GridRecordsModule&#45;&gt;CreatorsModule -->
<g id="edge4" class="edge">
<title>GridRecordsModule&#45;&gt;CreatorsModule</title>
<path fill="none" stroke="black" d="M90,-122.11C90,-141.34 90,-169 90,-169 90,-169 257.42,-169 257.42,-169"/>
<polygon fill="black" stroke="black" points="257.42,-172.5 267.42,-169 257.42,-165.5 257.42,-172.5"/>
</g>
</g>
</svg>
