<?xml version="1.0" encoding="UTF-8" standalone="no"?>
<!DOCTYPE svg PUBLIC "-//W3C//DTD SVG 1.1//EN"
 "http://www.w3.org/Graphics/SVG/1.1/DTD/svg11.dtd">
<!-- Generated by graphviz version 2.46.0 (20210119.1425)
 -->
<!-- Title: dependencies Pages: 1 -->
<svg width="688pt" height="211pt"
 viewBox="0.00 0.00 688.00 211.00" xmlns="http://www.w3.org/2000/svg" xmlns:xlink="http://www.w3.org/1999/xlink">
<g id="graph0" class="graph" transform="scale(1 1) rotate(0) translate(4 207)">
<title>dependencies</title>
<polygon fill="white" stroke="transparent" points="-4,4 -4,-207 684,-207 684,4 -4,4"/>
<text text-anchor="start" x="319.01" y="-42.4" font-family="sans-serif" font-weight="bold" font-size="14.00">Legend</text>
<polygon fill="#ffffb3" stroke="transparent" points="106,-10 106,-30 126,-30 126,-10 106,-10"/>
<text text-anchor="start" x="129.63" y="-15.4" font-family="sans-serif" font-size="14.00"> &#160;Declarations</text>
<polygon fill="#8dd3c7" stroke="transparent" points="219,-10 219,-30 239,-30 239,-10 219,-10"/>
<text text-anchor="start" x="242.73" y="-15.4" font-family="sans-serif" font-size="14.00"> &#160;Module</text>
<polygon fill="#80b1d3" stroke="transparent" points="305,-10 305,-30 325,-30 325,-10 305,-10"/>
<text text-anchor="start" x="328.78" y="-15.4" font-family="sans-serif" font-size="14.00"> &#160;Bootstrap</text>
<polygon fill="#fdb462" stroke="transparent" points="402,-10 402,-30 422,-30 422,-10 402,-10"/>
<text text-anchor="start" x="425.67" y="-15.4" font-family="sans-serif" font-size="14.00"> &#160;Providers</text>
<polygon fill="#fb8072" stroke="transparent" points="498,-10 498,-30 518,-30 518,-10 498,-10"/>
<text text-anchor="start" x="521.73" y="-15.4" font-family="sans-serif" font-size="14.00"> &#160;Exports</text>
<g id="clust1" class="cluster">
<title>cluster_CharactersModule</title>
<polygon fill="none" stroke="black" stroke-dasharray="1,5" points="8,-70 8,-195 672,-195 672,-70 8,-70"/>
</g>
<g id="clust2" class="cluster">
<title>cluster_CharactersModule_declarations</title>
<polygon fill="none" stroke="black" points="506,-78 506,-130 664,-130 664,-78 506,-78"/>
</g>
<g id="clust4" class="cluster">
<title>cluster_CharactersModule_imports</title>
<polygon fill="none" stroke="black" points="16,-78 16,-130 498,-130 498,-78 16,-78"/>
</g>
<!-- CharactersComponent -->
<g id="node1" class="node">
<title>CharactersComponent</title>
<polygon fill="#ffffb3" stroke="black" points="655.68,-122 514.32,-122 514.32,-86 655.68,-86 655.68,-122"/>
<text text-anchor="middle" x="585" y="-99.8" font-family="Times,serif" font-size="14.00">CharactersComponent</text>
</g>
<!-- CharactersModule -->
<g id="node2" class="node">
<title>CharactersModule</title>
<polygon fill="#8dd3c7" stroke="black" points="383.9,-187 380.9,-191 359.9,-191 356.9,-187 264.1,-187 264.1,-151 383.9,-151 383.9,-187"/>
<text text-anchor="middle" x="324" y="-164.8" font-family="Times,serif" font-size="14.00">CharactersModule</text>
</g>
<!-- CharactersComponent&#45;&gt;CharactersModule -->
<g id="edge1" class="edge">
<title>CharactersComponent&#45;&gt;CharactersModule</title>
<path fill="none" stroke="black" d="M585,-122.11C585,-141.34 585,-169 585,-169 585,-169 393.88,-169 393.88,-169"/>
<polygon fill="black" stroke="black" points="393.88,-165.5 383.88,-169 393.88,-172.5 393.88,-165.5"/>
</g>
<!-- CharactersRoutingModule -->
<g id="node3" class="node">
<title>CharactersRoutingModule</title>
<polygon fill="#8dd3c7" stroke="black" points="490.02,-122 487.02,-126 466.02,-126 463.02,-122 325.98,-122 325.98,-86 490.02,-86 490.02,-122"/>
<text text-anchor="middle" x="408" y="-99.8" font-family="Times,serif" font-size="14.00">CharactersRoutingModule</text>
</g>
<!-- CharactersRoutingModule&#45;&gt;CharactersModule -->
<g id="edge2" class="edge">
<title>CharactersRoutingModule&#45;&gt;CharactersModule</title>
<path fill="none" stroke="black" d="M354.72,-122.11C354.72,-122.11 354.72,-140.99 354.72,-140.99"/>
<polygon fill="black" stroke="black" points="351.22,-140.99 354.72,-150.99 358.22,-140.99 351.22,-140.99"/>
</g>
<!-- DetailRecordModule -->
<g id="node4" class="node">
<title>DetailRecordModule</title>
<polygon fill="#8dd3c7" stroke="black" points="308.18,-122 305.18,-126 284.18,-126 281.18,-122 173.82,-122 173.82,-86 308.18,-86 308.18,-122"/>
<text text-anchor="middle" x="241" y="-99.8" font-family="Times,serif" font-size="14.00">DetailRecordModule</text>
</g>
<!-- DetailRecordModule&#45;&gt;CharactersModule -->
<g id="edge3" class="edge">
<title>DetailRecordModule&#45;&gt;CharactersModule</title>
<path fill="none" stroke="black" d="M286.2,-122.11C286.2,-122.11 286.2,-140.99 286.2,-140.99"/>
<polygon fill="black" stroke="black" points="282.7,-140.99 286.2,-150.99 289.7,-140.99 282.7,-140.99"/>
</g>
<!-- GridRecordsModule -->
<g id="node5" class="node">
<title>GridRecordsModule</title>
<polygon fill="#8dd3c7" stroke="black" points="155.58,-122 152.58,-126 131.58,-126 128.58,-122 24.42,-122 24.42,-86 155.58,-86 155.58,-122"/>
<text text-anchor="middle" x="90" y="-99.8" font-family="Times,serif" font-size="14.00">GridRecordsModule</text>
</g>
<!-- GridRecordsModule&#45;&gt;CharactersModule -->
<g id="edge4" class="edge">
<title>GridRecordsModule&#45;&gt;CharactersModule</title>
<path fill="none" stroke="black" d="M90,-122.11C90,-141.34 90,-169 90,-169 90,-169 254.04,-169 254.04,-169"/>
<polygon fill="black" stroke="black" points="254.04,-172.5 264.04,-169 254.04,-165.5 254.04,-172.5"/>
</g>
</g>
</svg>
