<?xml version="1.0" encoding="UTF-8" standalone="no"?>
<!DOCTYPE svg PUBLIC "-//W3C//DTD SVG 1.1//EN"
 "http://www.w3.org/Graphics/SVG/1.1/DTD/svg11.dtd">
<!-- Generated by graphviz version 2.46.0 (20210119.1425)
 -->
<!-- Title: dependencies Pages: 1 -->
<svg width="688pt" height="211pt"
 viewBox="0.00 0.00 688.00 211.00" xmlns="http://www.w3.org/2000/svg" xmlns:xlink="http://www.w3.org/1999/xlink">
<g id="graph0" class="graph" transform="scale(1 1) rotate(0) translate(4 207)">
<title>dependencies</title>
<polygon fill="white" stroke="transparent" points="-4,4 -4,-207 684,-207 684,4 -4,4"/>
<text text-anchor="start" x="319.01" y="-42.4" font-family="sans-serif" font-weight="bold" font-size="14.00">Legend</text>
<polygon fill="#ffffb3" stroke="transparent" points="106,-10 106,-30 126,-30 126,-10 106,-10"/>
<text text-anchor="start" x="129.63" y="-15.4" font-family="sans-serif" font-size="14.00"> &#160;Declarations</text>
<polygon fill="#8dd3c7" stroke="transparent" points="219,-10 219,-30 239,-30 239,-10 219,-10"/>
<text text-anchor="start" x="242.73" y="-15.4" font-family="sans-serif" font-size="14.00"> &#160;Module</text>
<polygon fill="#80b1d3" stroke="transparent" points="305,-10 305,-30 325,-30 325,-10 305,-10"/>
<text text-anchor="start" x="328.78" y="-15.4" font-family="sans-serif" font-size="14.00"> &#160;Bootstrap</text>
<polygon fill="#fdb462" stroke="transparent" points="402,-10 402,-30 422,-30 422,-10 402,-10"/>
<text text-anchor="start" x="425.67" y="-15.4" font-family="sans-serif" font-size="14.00"> &#160;Providers</text>
<polygon fill="#fb8072" stroke="transparent" points="498,-10 498,-30 518,-30 518,-10 498,-10"/>
<text text-anchor="start" x="521.73" y="-15.4" font-family="sans-serif" font-size="14.00"> &#160;Exports</text>
<g id="clust1" class="cluster">
<title>cluster_CharactersModule</title>
<polygon fill="none" stroke="black" stroke-dasharray="1,5" points="8,-70 8,-195 672,-195 672,-70 8,-70"/>
</g>
<g id="clust4" class="cluster">
<title>cluster_CharactersModule_imports</title>
<polygon fill="none" stroke="black" points="182,-78 182,-130 664,-130 664,-78 182,-78"/>
</g>
<g id="clust2" class="cluster">
<title>cluster_CharactersModule_declarations</title>
<polygon fill="none" stroke="black" points="16,-78 16,-130 174,-130 174,-78 16,-78"/>
</g>
<!-- CharactersComponent -->
<g id="node1" class="node">
<title>CharactersComponent</title>
<polygon fill="#ffffb3" stroke="black" points="165.68,-122 24.32,-122 24.32,-86 165.68,-86 165.68,-122"/>
<text text-anchor="middle" x="95" y="-99.8" font-family="Times,serif" font-size="14.00">CharactersComponent</text>
</g>
<!-- CharactersModule -->
<g id="node2" class="node">
<title>CharactersModule</title>
<polygon fill="#8dd3c7" stroke="black" points="390.9,-187 387.9,-191 366.9,-191 363.9,-187 271.1,-187 271.1,-151 390.9,-151 390.9,-187"/>
<text text-anchor="middle" x="331" y="-164.8" font-family="Times,serif" font-size="14.00">CharactersModule</text>
</g>
<!-- CharactersComponent&#45;&gt;CharactersModule -->
<g id="edge1" class="edge">
<title>CharactersComponent&#45;&gt;CharactersModule</title>
<path fill="none" stroke="black" d="M95,-122.11C95,-141.34 95,-169 95,-169 95,-169 261.14,-169 261.14,-169"/>
<polygon fill="black" stroke="black" points="261.14,-172.5 271.14,-169 261.14,-165.5 261.14,-172.5"/>
</g>
<!-- CharactersRoutingModule -->
<g id="node3" class="node">
<title>CharactersRoutingModule</title>
<polygon fill="#8dd3c7" stroke="black" points="656.02,-122 653.02,-126 632.02,-126 629.02,-122 491.98,-122 491.98,-86 656.02,-86 656.02,-122"/>
<text text-anchor="middle" x="574" y="-99.8" font-family="Times,serif" font-size="14.00">CharactersRoutingModule</text>
</g>
<!-- CharactersRoutingModule&#45;&gt;CharactersModule -->
<g id="edge2" class="edge">
<title>CharactersRoutingModule&#45;&gt;CharactersModule</title>
<path fill="none" stroke="black" d="M574,-122.11C574,-141.34 574,-169 574,-169 574,-169 400.76,-169 400.76,-169"/>
<polygon fill="black" stroke="black" points="400.76,-165.5 390.76,-169 400.76,-172.5 400.76,-165.5"/>
</g>
<!-- DetailRecordModule -->
<g id="node4" class="node">
<title>DetailRecordModule</title>
<polygon fill="#8dd3c7" stroke="black" points="474.18,-122 471.18,-126 450.18,-126 447.18,-122 339.82,-122 339.82,-86 474.18,-86 474.18,-122"/>
<text text-anchor="middle" x="407" y="-99.8" font-family="Times,serif" font-size="14.00">DetailRecordModule</text>
</g>
<!-- DetailRecordModule&#45;&gt;CharactersModule -->
<g id="edge3" class="edge">
<title>DetailRecordModule&#45;&gt;CharactersModule</title>
<path fill="none" stroke="black" d="M365.3,-122.11C365.3,-122.11 365.3,-140.99 365.3,-140.99"/>
<polygon fill="black" stroke="black" points="361.8,-140.99 365.3,-150.99 368.8,-140.99 361.8,-140.99"/>
</g>
<!-- GridRecordsModule -->
<g id="node5" class="node">
<title>GridRecordsModule</title>
<polygon fill="#8dd3c7" stroke="black" points="321.58,-122 318.58,-126 297.58,-126 294.58,-122 190.42,-122 190.42,-86 321.58,-86 321.58,-122"/>
<text text-anchor="middle" x="256" y="-99.8" font-family="Times,serif" font-size="14.00">GridRecordsModule</text>
</g>
<!-- GridRecordsModule&#45;&gt;CharactersModule -->
<g id="edge4" class="edge">
<title>GridRecordsModule&#45;&gt;CharactersModule</title>
<path fill="none" stroke="black" d="M296.42,-122.11C296.42,-122.11 296.42,-140.99 296.42,-140.99"/>
<polygon fill="black" stroke="black" points="292.92,-140.99 296.42,-150.99 299.92,-140.99 292.92,-140.99"/>
</g>
</g>
</svg>
